<?xml version="1.0" standalone="no"?>
<!DOCTYPE svg PUBLIC "-//W3C//DTD SVG 20010904//EN"
 "http://www.w3.org/TR/2001/REC-SVG-20010904/DTD/svg10.dtd">
<svg version="1.0" xmlns="http://www.w3.org/2000/svg"
 width="297.000000pt" height="225.000000pt" viewBox="0 0 297.000000 225.000000"
 preserveAspectRatio="xMidYMid meet">

<g transform="translate(0.000000,225.000000) scale(0.100000,-0.100000)"
fill="#000000" stroke="none">
<path d="M170 1920 l0 -170 50 0 50 0 0 125 0 125 120 0 120 0 0 45 0 45 -170
0 -170 0 0 -170z m330 125 l0 -34 -117 -3 -118 -3 -3 -122 -3 -123 -39 0 -40
0 0 160 0 160 160 0 160 0 0 -35z"/>
<path d="M2480 2045 l0 -45 125 0 125 0 0 -130 0 -130 45 0 45 0 0 175 0 175
-170 0 -170 0 0 -45z m330 -130 l0 -165 -35 0 -34 0 -3 128 -3 127 -122 3
-123 3 0 34 0 35 160 0 160 0 0 -165z"/>
<path d="M1335 1864 c-310 -47 -586 -176 -855 -400 -50 -41 -150 -133 -223
-203 l-131 -128 63 -71 c65 -73 235 -234 326 -308 181 -149 481 -293 725 -348
407 -93 861 35 1259 354 98 79 361 340 361 358 0 13 -149 176 -233 255 -244
230 -539 391 -847 464 -82 19 -139 25 -260 28 -85 2 -168 1 -185 -1z m445 -37
c250 -59 494 -178 710 -345 82 -64 285 -262 337 -329 l25 -32 -20 -28 c-39
-55 -298 -300 -385 -365 -253 -188 -556 -312 -823 -338 -297 -28 -664 77 -974
277 -134 88 -330 259 -452 396 l-62 70 129 125 c72 69 170 158 218 199 264
220 544 350 852 397 17 2 100 3 185 1 121 -3 178 -9 260 -28z"/>
<path d="M1717 1736 c154 -58 280 -167 350 -302 63 -120 77 -180 77 -314 0
-99 -4 -126 -28 -195 -70 -203 -209 -344 -411 -416 -68 -24 -29 -23 75 1 100
24 239 78 330 128 177 97 383 259 513 405 l69 76 -66 73 c-132 148 -343 317
-504 407 -131 74 -294 132 -432 155 -24 5 -16 -1 27 -18z"/>
<path d="M1205 1730 c-211 -55 -431 -173 -625 -335 -81 -68 -270 -258 -270
-273 0 -18 279 -282 370 -349 175 -130 353 -218 526 -262 69 -17 212 -39 159
-25 -247 69 -406 214 -486 441 -30 85 -36 238 -15 337 47 209 192 379 394 462
68 28 44 30 -53 4z"/>
<path d="M1357 1645 c-141 -39 -271 -145 -336 -276 -50 -99 -65 -171 -58 -279
10 -169 94 -317 233 -409 98 -66 183 -92 299 -92 154 0 278 52 386 160 76 76
122 161 144 266 18 88 18 132 0 217 -42 199 -185 353 -384 412 -66 19 -215 20
-284 1z m179 -182 c32 -91 61 -170 62 -175 2 -4 -6 -8 -18 -8 -38 0 -495 82
-504 91 -13 12 38 83 94 130 78 67 203 121 296 128 6 1 37 -74 70 -166z m128
135 c32 -10 82 -34 110 -52 49 -31 146 -129 146 -147 0 -9 -228 -279 -236
-279 -2 0 -9 12 -15 28 -27 67 -169 468 -169 475 0 13 96 -2 164 -25z m317
-331 c32 -102 19 -292 -24 -351 -12 -17 -21 -16 -187 14 -96 17 -176 33 -178
35 -6 5 13 28 190 236 173 203 158 198 199 66z m-751 53 c91 -17 168 -30 173
-30 20 0 -4 -33 -130 -182 -196 -230 -200 -235 -212 -223 -21 20 -52 131 -58
202 -6 75 7 167 33 228 8 19 18 35 22 35 4 0 81 -14 172 -30z m189 -441 c50
-138 89 -254 86 -257 -3 -3 -38 -1 -78 6 -106 18 -208 71 -285 149 -35 36 -62
68 -60 73 5 15 231 280 238 280 4 0 48 -113 99 -251z m249 51 c299 -53 275
-46 261 -72 -20 -38 -109 -126 -158 -158 -52 -33 -134 -63 -197 -73 l-41 -7
-62 168 c-34 92 -61 170 -61 175 0 12 19 9 258 -33z"/>
<path d="M1618 483 c6 -2 18 -2 25 0 6 3 1 5 -13 5 -14 0 -19 -2 -12 -5z"/>
<path d="M170 325 l0 -175 170 0 170 0 0 45 0 45 -120 0 -120 0 0 130 0 130
-50 0 -50 0 0 -175z m92 38 l3 -128 118 -3 117 -3 0 -34 0 -35 -160 0 -160 0
0 165 0 165 40 0 39 0 3 -127z"/>
<path d="M2730 370 l0 -130 -125 0 -125 0 0 -45 0 -45 170 0 170 0 0 175 0
175 -45 0 -45 0 0 -130z m80 -45 l0 -165 -160 0 -160 0 0 35 0 34 123 3 122 3
3 128 3 127 34 0 35 0 0 -165z"/>
</g>
</svg>
