<?xml version="1.0" standalone="no"?>
<!DOCTYPE svg PUBLIC "-//W3C//DTD SVG 20010904//EN"
 "http://www.w3.org/TR/2001/REC-SVG-20010904/DTD/svg10.dtd">
<svg version="1.0" xmlns="http://www.w3.org/2000/svg"
 width="297.000000pt" height="225.000000pt" viewBox="0 0 297.000000 225.000000"
 preserveAspectRatio="xMidYMid meet">

<g transform="translate(0.000000,225.000000) scale(0.100000,-0.100000)"
fill="#000000" stroke="none">
<path d="M170 1920 l0 -170 50 0 50 0 0 125 0 125 120 0 120 0 0 45 0 45 -170
0 -170 0 0 -170z m330 125 l0 -34 -117 -3 -118 -3 -3 -122 -3 -123 -39 0 -40
0 0 160 0 160 160 0 160 0 0 -35z"/>
<path d="M2480 2045 l0 -45 125 0 125 0 0 -130 0 -130 45 0 45 0 0 175 0 175
-170 0 -170 0 0 -45z m330 -130 l0 -165 -35 0 -34 0 -3 128 -3 127 -122 3
-123 3 0 34 0 35 160 0 160 0 0 -165z"/>
<path d="M1320 1870 c-19 -5 -69 -16 -112 -24 -42 -8 -105 -26 -140 -39 -34
-13 -94 -36 -132 -50 -183 -70 -424 -244 -696 -506 l-125 -119 155 -157 c85
-87 188 -184 229 -217 73 -59 373 -242 454 -278 106 -47 426 -112 552 -113 80
-1 246 20 340 44 60 15 276 99 349 136 127 64 331 220 482 368 l109 107 -110
-102 c-116 -108 -243 -211 -360 -290 -226 -152 -576 -260 -825 -253 -126 4
-436 69 -537 113 -81 36 -381 219 -454 278 -41 33 -141 128 -224 212 l-150
152 120 114 c269 258 509 432 691 501 38 14 97 37 131 50 130 49 308 77 458
70 408 -18 774 -190 1135 -531 55 -52 62 -57 25 -17 -121 130 -362 309 -525
391 -108 54 -299 120 -415 143 -109 21 -365 31 -425 17z"/>
<path d="M1234 1736 c-126 -32 -219 -64 -284 -97 -212 -106 -353 -212 -531
-397 l-109 -113 47 -60 c165 -210 495 -442 758 -532 99 -33 251 -64 262 -53 4
3 -1 6 -11 6 -33 0 -142 42 -201 78 -33 20 -89 63 -125 96 l-65 60 60 -63 c33
-35 93 -82 135 -107 41 -24 70 -44 64 -44 -25 0 -221 73 -292 109 -209 105
-458 302 -586 462 l-37 47 104 108 c213 222 442 376 664 448 105 33 117 33 61
-4 -67 -44 -181 -158 -212 -212 -34 -58 -57 -122 -81 -217 -21 -88 -16 -238
11 -316 19 -55 90 -192 104 -200 5 -3 -10 29 -34 72 -69 125 -81 170 -81 308
0 109 3 129 33 217 18 53 50 123 72 156 58 86 177 185 270 222 142 58 143 61
4 26z"/>
<path d="M1695 1741 c62 -22 129 -56 175 -89 l35 -24 -30 26 c-16 15 -50 38
-75 52 l-45 25 35 -7 c68 -12 157 -46 295 -114 162 -80 292 -179 484 -373
l114 -115 -44 -53 c-78 -94 -298 -287 -393 -346 -155 -96 -379 -191 -491 -208
-35 -5 -32 -2 24 20 166 66 311 240 360 432 28 110 27 197 -4 303 -24 80 -88
230 -99 230 -3 0 10 -33 29 -72 19 -40 46 -113 60 -163 33 -113 30 -218 -10
-340 -66 -202 -185 -323 -393 -400 -136 -51 -117 -57 49 -16 260 64 486 188
692 376 73 67 155 147 181 178 l48 56 -61 68 c-105 117 -337 317 -439 379
-104 63 -303 145 -411 170 -124 28 -156 30 -86 5z"/>
<path d="M1357 1645 c-141 -39 -271 -145 -336 -276 -50 -99 -65 -171 -58 -279
10 -169 94 -317 233 -409 98 -66 183 -92 299 -92 154 0 278 52 386 160 76 76
122 161 144 266 18 88 18 132 0 217 -42 199 -185 353 -384 412 -66 19 -215 20
-284 1z m179 -182 c32 -91 61 -170 62 -175 2 -4 -6 -8 -18 -8 -38 0 -495 82
-504 91 -13 12 38 83 94 130 78 67 203 121 296 128 6 1 37 -74 70 -166z m128
135 c32 -10 82 -34 110 -52 49 -31 146 -129 146 -147 0 -9 -228 -279 -236
-279 -2 0 -9 12 -15 28 -27 67 -169 468 -169 475 0 13 96 -2 164 -25z m317
-331 c32 -102 19 -292 -24 -351 -12 -17 -21 -16 -187 14 -96 17 -176 33 -178
35 -6 5 13 28 190 236 173 203 158 198 199 66z m-751 53 c91 -17 168 -30 173
-30 20 0 -4 -33 -130 -182 -196 -230 -200 -235 -212 -223 -21 20 -52 131 -58
202 -6 75 7 167 33 228 8 19 18 35 22 35 4 0 81 -14 172 -30z m189 -441 c50
-138 89 -254 86 -257 -3 -3 -38 -1 -78 6 -106 18 -208 71 -285 149 -35 36 -62
68 -60 73 5 15 231 280 238 280 4 0 48 -113 99 -251z m249 51 c299 -53 275
-46 261 -72 -20 -38 -109 -126 -158 -158 -52 -33 -134 -63 -197 -73 l-41 -7
-62 168 c-34 92 -61 170 -61 175 0 12 19 9 258 -33z"/>
<path d="M1965 1570 c33 -33 62 -60 64 -60 3 0 -21 27 -54 60 -33 33 -62 60
-64 60 -3 0 21 -27 54 -60z"/>
<path d="M2793 1194 l68 -70 -43 -50 c-23 -27 -29 -38 -14 -24 15 14 36 37 46
51 l19 26 -72 69 -72 69 68 -71z"/>
<path d="M170 325 l0 -175 170 0 170 0 0 45 0 45 -120 0 -120 0 0 130 0 130
-50 0 -50 0 0 -175z m92 38 l3 -128 118 -3 117 -3 0 -34 0 -35 -160 0 -160 0
0 165 0 165 40 0 39 0 3 -127z"/>
<path d="M2730 370 l0 -130 -125 0 -125 0 0 -45 0 -45 170 0 170 0 0 175 0
175 -45 0 -45 0 0 -130z m80 -45 l0 -165 -160 0 -160 0 0 35 0 34 123 3 122 3
3 128 3 127 34 0 35 0 0 -165z"/>
</g>
</svg>
